<?xml version="1.0" ?>
<?xml-stylesheet type="text/css" href="https://fonts.googleapis.com/css?family=Roboto:700"?>
<svg height="260" version="1.1" width="500" xmlns="http://www.w3.org/2000/svg" xmlns:rdf="http://www.w3.org/1999/02/22-rdf-syntax-ns#">
    <rect height="260" width="500" style="fill: #95a5a6;" />
    <rect x="0" y="240" height="20" width="20" style="fill: #16a085;" />
    <circle cx="350" cy="115" r="5" style="fill: #2980b9;"></circle>
    
    <text x="175" y="245" style="fill: #000; font-family: 'Roboto', sans-serif; font-size: 16;">Score: 264</text>
    <text x="275" y="245" style="fill: #000; font-family: 'Roboto', sans-serif; font-size: 16">Left: 736</text>
    
    <rect x="25" y="75" height="15" width="15" style="fill: #2c3e50;" />
    <rect x="65" y="40" height="15" width="15" style="fill: #2c3e50;" />
    <rect x="105" y="45" height="15" width="15" style="fill: #2c3e50;" />
    <rect x="145" y="50" height="15" width="15" style="fill: #2c3e50;" />
    <rect x="185" y="45" height="15" width="15" style="fill: #2c3e50;" />
    <rect x="225" y="25" height="15" width="15" style="fill: #2c3e50;" />
    <rect x="265" y="30" height="15" width="15" style="fill: #2c3e50;" />
    <rect x="305" y="40" height="15" width="15" style="fill: #2c3e50;" />
    <rect x="345" y="10" height="15" width="15" style="fill: #2c3e50;" />
    <rect x="385" y="20" height="15" width="15" style="fill: #2c3e50;" />
    <rect x="425" y="60" height="15" width="15" style="fill: #2c3e50;" />
    <rect x="465" y="120" height="15" width="15" style="fill: #2c3e50;" />
</svg>